<mxfile host="app.diagrams.net" agent="Mozilla/5.0 (Macintosh; Intel Mac OS X 10_15_7) AppleWebKit/537.36 (KHTML, like Gecko) Chrome/132.0.0.0 Safari/537.36" version="24.8.6">
  <diagram name="Page-1" id="sam5I627i_zvV32q_E9m">
    <mxGraphModel dx="1719" dy="1316" grid="0" gridSize="10" guides="1" tooltips="1" connect="1" arrows="1" fold="1" page="0" pageScale="1" pageWidth="1100" pageHeight="850" math="0" shadow="0">
      <root>
        <mxCell id="0" />
        <mxCell id="1" parent="0" />
        <mxCell id="JRl8q9AkAAK71kSIKYyb-1" value="Supervisor" style="rounded=1;whiteSpace=wrap;html=1;" vertex="1" parent="1">
          <mxGeometry x="-178" y="-131" width="120" height="60" as="geometry" />
        </mxCell>
        <mxCell id="JRl8q9AkAAK71kSIKYyb-2" value="Search" style="rounded=1;whiteSpace=wrap;html=1;" vertex="1" parent="1">
          <mxGeometry x="-172" y="-5" width="120" height="60" as="geometry" />
        </mxCell>
        <mxCell id="JRl8q9AkAAK71kSIKYyb-3" value="END" style="strokeWidth=2;html=1;shape=mxgraph.flowchart.terminator;whiteSpace=wrap;" vertex="1" parent="1">
          <mxGeometry x="24" y="-71" width="100" height="60" as="geometry" />
        </mxCell>
        <mxCell id="JRl8q9AkAAK71kSIKYyb-4" value="1" style="endArrow=classic;html=1;rounded=0;fontSize=12;startSize=8;endSize=8;curved=1;entryX=0.158;entryY=-0.067;entryDx=0;entryDy=0;entryPerimeter=0;exitX=0.25;exitY=1;exitDx=0;exitDy=0;" edge="1" parent="1" source="JRl8q9AkAAK71kSIKYyb-1" target="JRl8q9AkAAK71kSIKYyb-2">
          <mxGeometry x="-0.0224" y="1" width="50" height="50" relative="1" as="geometry">
            <mxPoint x="-156" y="-71" as="sourcePoint" />
            <mxPoint x="-106" y="-121" as="targetPoint" />
            <Array as="points">
              <mxPoint x="-175" y="-46" />
            </Array>
            <mxPoint as="offset" />
          </mxGeometry>
        </mxCell>
        <mxCell id="JRl8q9AkAAK71kSIKYyb-5" value="2" style="endArrow=classic;html=1;rounded=0;fontSize=12;startSize=8;endSize=8;curved=1;entryX=0.692;entryY=0.983;entryDx=0;entryDy=0;entryPerimeter=0;" edge="1" parent="1" target="JRl8q9AkAAK71kSIKYyb-1">
          <mxGeometry x="0.0156" width="50" height="50" relative="1" as="geometry">
            <mxPoint x="-95" y="-9" as="sourcePoint" />
            <mxPoint x="-143" y="1" as="targetPoint" />
            <Array as="points">
              <mxPoint x="-70" y="-37" />
            </Array>
            <mxPoint as="offset" />
          </mxGeometry>
        </mxCell>
        <mxCell id="JRl8q9AkAAK71kSIKYyb-6" value="3" style="curved=1;endArrow=classic;html=1;rounded=0;fontSize=12;startSize=8;endSize=8;exitX=1;exitY=0.5;exitDx=0;exitDy=0;" edge="1" parent="1" source="JRl8q9AkAAK71kSIKYyb-1">
          <mxGeometry width="50" height="50" relative="1" as="geometry">
            <mxPoint x="-26" y="9" as="sourcePoint" />
            <mxPoint x="24" y="-41" as="targetPoint" />
            <Array as="points">
              <mxPoint x="-1" y="-75" />
              <mxPoint x="-34" y="-33" />
            </Array>
          </mxGeometry>
        </mxCell>
      </root>
    </mxGraphModel>
  </diagram>
</mxfile>
